<?xml version="1.0" encoding="utf-8"?>
<!-- Generator: Adobe Illustrator 16.0.0, SVG Export Plug-In . SVG Version: 6.00 Build 0)  -->
<!DOCTYPE svg PUBLIC "-//W3C//DTD SVG 1.1//EN" "http://www.w3.org/Graphics/SVG/1.1/DTD/svg11.dtd">
<svg version="1.1" id="Layer_1" xmlns="http://www.w3.org/2000/svg" xmlns:xlink="http://www.w3.org/1999/xlink" x="0px" y="0px"
	 width="89.424px" height="10.594px" viewBox="0 0 89.424 10.594" enable-background="new 0 0 89.424 10.594" xml:space="preserve">
<rect x="0.366" y="0.365" fill="#FFFFFF" width="50.506" height="9.862"/>
<rect x="50.872" y="0.365" fill="#252525" width="38.186" height="9.862"/>
<g>
	<polygon fill="#252525" points="8.438,5.705 11.201,5.705 11.201,4.84 8.438,4.84 8.438,2.782 11.297,2.782 11.297,1.924 
		7.473,1.924 7.473,8.66 11.388,8.66 11.388,7.8 8.438,7.8 	"/>
	<polygon fill="#252525" points="14.673,6.66 12.645,1.924 11.673,1.924 14.58,8.698 14.799,8.698 17.65,1.924 16.689,1.924 	"/>
	<polygon fill="#252525" points="18.96,5.705 21.721,5.705 21.721,4.84 18.96,4.84 18.96,2.782 21.817,2.782 21.817,1.924 
		17.994,1.924 17.994,8.66 21.91,8.66 21.91,7.8 18.96,7.8 	"/>
	<path fill="#252525" d="M25.289,1.886l-2.896,6.783h0.992l0.842-1.998h2.878l0.899,1.998h0.988l-3.024-6.783H25.289z M24.611,5.812
		l1.009-2.443l1.087,2.443H24.611z"/>
	<polygon fill="#252525" points="30.519,1.924 29.553,1.924 29.553,8.669 33.556,8.669 33.556,7.791 30.519,7.791 	"/>
	<rect x="34.129" y="1.924" fill="#252525" width="0.966" height="6.745"/>
	<path fill="#252525" d="M46.714,5.348v0.86h1.299v1.404L47.92,7.641c-0.538,0.177-0.998,0.266-1.386,0.266
		c-0.794,0-1.444-0.243-1.95-0.729c-0.505-0.485-0.758-1.112-0.758-1.878c0-0.73,0.253-1.348,0.758-1.85
		c0.506-0.503,1.127-0.753,1.863-0.753c0.792,0,1.591,0.232,2.396,0.699V2.411c-0.523-0.219-0.954-0.368-1.295-0.45
		c-0.341-0.083-0.702-0.124-1.082-0.124c-1.043,0-1.911,0.335-2.603,1.005c-0.691,0.669-1.039,1.508-1.039,2.516
		c0,0.956,0.335,1.761,1.003,2.411c0.668,0.653,1.56,0.978,2.677,0.978c0.818,0,1.642-0.18,2.472-0.541V5.348H46.714z"/>
	<polygon fill="#252525" points="41.442,7.163 36.895,1.925 36.11,1.925 36.11,8.669 37.02,8.669 37.02,3.475 41.529,8.669 
		42.359,8.669 42.359,1.925 41.442,1.925 	"/>
	<path fill="#252525" d="M6.202,7.322C5.829,6.714,5.539,6.288,5.333,6.043C5.128,5.799,4.916,5.604,4.7,5.463
		c0.367-0.141,0.649-0.355,0.846-0.641C5.742,4.533,5.84,4.195,5.84,3.803c0-0.576-0.2-1.034-0.601-1.372S4.296,1.924,3.614,1.924
		h-1.69v6.745h0.966V5.734h0.252c0.316,0,0.541,0.036,0.675,0.107c0.133,0.071,0.283,0.191,0.449,0.354
		c0.167,0.163,0.349,0.385,0.549,0.661l0.322,0.527l0.3,0.492l0.188,0.266c0.029,0.038,0.048,0.065,0.058,0.083l0.295,0.443h1.148
		L6.767,8.187C6.625,7.994,6.438,7.705,6.202,7.322z M4.264,4.748C4.082,4.832,3.746,4.874,3.256,4.874H2.889V2.745h0.29
		c0.473,0,0.812,0.035,1.018,0.106c0.204,0.07,0.362,0.192,0.475,0.363c0.113,0.174,0.17,0.365,0.17,0.578
		c0,0.215-0.052,0.408-0.153,0.576C4.587,4.539,4.445,4.665,4.264,4.748z"/>
</g>
<g>
	<polygon fill="#FFFFFF" points="59.524,5.705 62.285,5.705 62.285,4.84 59.524,4.84 59.524,2.782 62.382,2.782 62.382,1.924 
		58.559,1.924 58.559,8.66 62.474,8.66 62.474,7.8 59.524,7.8 	"/>
	<polygon fill="#FFFFFF" points="71.213,1.924 70.246,1.924 70.246,8.669 74.249,8.669 74.249,7.791 71.213,7.791 	"/>
	<rect x="74.872" y="1.924" fill="#FFFFFF" width="0.966" height="6.745"/>
	<polygon fill="#FFFFFF" points="76.467,2.774 78.78,2.774 78.78,8.669 79.749,8.669 79.749,2.774 82.102,2.774 82.102,1.914 
		76.467,1.914 	"/>
	<polygon fill="#FFFFFF" points="86.8,1.924 85.155,4.481 83.537,1.924 82.491,1.924 84.677,5.401 84.677,8.669 85.666,8.669 
		85.666,5.401 87.852,1.924 	"/>
	<path fill="#FFFFFF" d="M65.955,1.886L63.06,8.669h0.993l0.841-1.998h2.878l0.899,1.998h0.987l-3.024-6.783H65.955z M65.276,5.812
		l1.011-2.443l1.087,2.443H65.276z"/>
	<path fill="#FFFFFF" d="M57.103,7.322c-0.373-0.608-0.661-1.034-0.869-1.279c-0.205-0.244-0.417-0.438-0.631-0.58
		c0.366-0.141,0.647-0.355,0.844-0.641c0.195-0.289,0.294-0.627,0.294-1.02c0-0.576-0.2-1.034-0.6-1.371
		c-0.402-0.339-0.943-0.508-1.624-0.508h-1.691v6.745h0.966V5.734h0.252c0.314,0,0.54,0.036,0.673,0.107
		c0.134,0.071,0.285,0.191,0.451,0.354c0.165,0.163,0.349,0.385,0.547,0.661l0.324,0.527l0.298,0.492l0.189,0.266
		c0.028,0.038,0.047,0.065,0.058,0.083l0.293,0.443h1.149l-0.357-0.482C57.527,7.994,57.338,7.705,57.103,7.322z M55.164,4.749
		c-0.182,0.083-0.518,0.125-1.005,0.125h-0.368V2.745h0.288c0.475,0,0.812,0.035,1.017,0.106c0.205,0.07,0.363,0.192,0.478,0.364
		c0.112,0.172,0.169,0.364,0.169,0.577c0,0.215-0.052,0.408-0.152,0.576C55.487,4.539,55.347,4.665,55.164,4.749z"/>
</g>
<path fill="#252525" d="M50.901,0H0v10.594h50.901h38.522V0H50.901z M89.058,10.228h-37.79h-0.731H0.366V0.366h50.17h0.731h37.79
	V10.228z"/>
</svg>
